<svg width="53" height="71" viewBox="0 0 53 71" fill="none" xmlns="http://www.w3.org/2000/svg">
<path d="M46.039 9.45831H35.1536C35.1536 4.65513 31.2484 0.75 26.4453 0.75C21.6421 0.75 17.7369 4.65513 17.7369 9.45831H6.85155C3.24576 9.45831 0.320312 12.3838 0.320312 15.9895V63.8853C0.320312 67.4911 3.24576 70.4165 6.85155 70.4165H46.039C49.6447 70.4165 52.5702 67.4911 52.5702 63.8853V15.9895C52.5702 12.3838 49.6447 9.45831 46.039 9.45831ZM13.3828 58.4426C11.5731 58.4426 10.1172 56.9867 10.1172 55.177C10.1172 53.3673 11.5731 51.9113 13.3828 51.9113C15.1925 51.9113 16.6484 53.3673 16.6484 55.177C16.6484 56.9867 15.1925 58.4426 13.3828 58.4426ZM13.3828 45.3801C11.5731 45.3801 10.1172 43.9242 10.1172 42.1145C10.1172 40.3048 11.5731 38.8489 13.3828 38.8489C15.1925 38.8489 16.6484 40.3048 16.6484 42.1145C16.6484 43.9242 15.1925 45.3801 13.3828 45.3801ZM13.3828 32.3176C11.5731 32.3176 10.1172 30.8617 10.1172 29.052C10.1172 27.2423 11.5731 25.7864 13.3828 25.7864C15.1925 25.7864 16.6484 27.2423 16.6484 29.052C16.6484 30.8617 15.1925 32.3176 13.3828 32.3176ZM26.4453 6.1927C28.255 6.1927 29.7109 7.64862 29.7109 9.45831C29.7109 11.268 28.255 12.7239 26.4453 12.7239C24.6356 12.7239 23.1796 11.268 23.1796 9.45831C23.1796 7.64862 24.6356 6.1927 26.4453 6.1927ZM43.8619 56.2655C43.8619 56.8642 43.372 57.354 42.7733 57.354H23.1796C22.5809 57.354 22.0911 56.8642 22.0911 56.2655V54.0884C22.0911 53.4897 22.5809 52.9999 23.1796 52.9999H42.7733C43.372 52.9999 43.8619 53.4897 43.8619 54.0884V56.2655ZM43.8619 43.203C43.8619 43.8017 43.372 44.2916 42.7733 44.2916H23.1796C22.5809 44.2916 22.0911 43.8017 22.0911 43.203V41.026C22.0911 40.4273 22.5809 39.9374 23.1796 39.9374H42.7733C43.372 39.9374 43.8619 40.4273 43.8619 41.026V43.203ZM43.8619 30.1406C43.8619 30.7393 43.372 31.2291 42.7733 31.2291H23.1796C22.5809 31.2291 22.0911 30.7393 22.0911 30.1406V27.9635C22.0911 27.3648 22.5809 26.8749 23.1796 26.8749H42.7733C43.372 26.8749 43.8619 27.3648 43.8619 27.9635V30.1406Z" fill="url(#paint0_linear_56_20234)"/>
<defs>
<linearGradient id="paint0_linear_56_20234" x1="0.320312" y1="70.4165" x2="52.5705" y2="70.4165" gradientUnits="userSpaceOnUse">
<stop offset="1" stop-color="#0480D4"/>
<stop stop-color="#A83BBA"/>
</linearGradient>
</defs>
</svg>
