<svg width="73" height="107" viewBox="0 0 73 107" fill="none" xmlns="http://www.w3.org/2000/svg">
<path d="M17.4627 58.6497C17.4469 59.031 17.452 59.4144 17.4121 59.7931C16.3844 69.5839 15.3563 79.3747 14.3017 89.4136C12.6707 104.938 41.3017 108.051 42.9565 92.2809C44.2057 80.3764 45.481 68.1992 46.7517 56.0215C46.8379 55.194 47.1247 54.7203 47.8652 54.296C53.8559 50.864 57.9977 45.8055 60.6264 39.4731C63.0791 33.5651 63.8636 27.3699 63.5551 21.0275C63.4289 18.4302 63.1622 15.8309 62.7924 13.2569C62.484 11.1099 60.3762 9.60832 58.317 9.83717C56.0492 10.0888 54.3695 11.893 54.4749 14.1382C54.5619 15.994 54.8712 17.8381 54.9923 19.6937C55.438 26.5276 54.768 33.1688 51.2531 39.2361C49.352 42.5172 46.7871 45.1737 43.4447 47.0405C42.7651 47.4202 42.1073 47.5795 41.3211 47.4934C35.7918 46.8869 30.241 46.4466 24.7318 45.6988C19.4171 44.977 15.4139 47.0156 12.1626 50.9871C9.71635 53.9749 8.11578 57.423 6.90012 61.0533C3.90404 70.0015 2.89231 79.2812 2.38696 88.6391C2.32871 89.7176 2.24419 90.835 2.45157 91.8787C2.85207 93.8939 4.7177 95.1046 6.89251 94.9662C8.82105 94.8432 10.485 93.317 10.671 91.3596C11.0917 86.9346 11.344 82.4909 11.8666 78.0791C12.4676 73.0067 13.4347 67.9894 15.192 63.1685C15.7626 61.6036 16.5041 60.1011 17.1675 58.5702C17.2659 58.5968 17.3643 58.6231 17.4627 58.6497Z" fill="url(#paint0_linear_56_4773)"/>
<path d="M33.5678 43.6028C40.1543 44.3172 46.0606 39.5661 46.7562 32.9942C47.4513 26.4264 42.6713 20.5251 36.0955 19.8329C29.5243 19.1412 23.5951 23.9516 22.9413 30.5057C22.286 37.0729 27.0069 42.891 33.5678 43.6028Z" fill="url(#paint1_linear_56_4773)"/>
<path d="M68.7971 20.7601C68.6043 20.874 68.3567 20.9481 68.3511 21.0373C68.3349 21.2972 68.3623 21.5873 68.4678 21.823C68.7913 22.5466 69.2804 23.2172 69.4839 23.9687C69.8665 25.3798 69.3154 26.6037 68.4084 27.6835C68.2614 27.8583 68.0302 27.9947 67.9591 28.1924C67.8647 28.4549 67.8891 28.7603 67.8624 29.0472C68.1384 29.0152 68.4875 29.0803 68.679 28.9362C70.3808 27.6534 71.1199 25.1813 70.3823 23.1428C70.1429 22.4821 69.7388 21.8765 69.3712 21.2689C69.2489 21.0675 69.0056 20.9394 68.7971 20.7601Z" fill="url(#paint2_linear_56_4773)"/>
<path d="M48.8152 10.0229C48.821 10.509 48.7705 11.0058 48.8586 11.4763C48.8982 11.687 49.2166 11.8456 49.4082 12.0276C49.5787 11.8029 49.8594 11.5947 49.8959 11.3501C49.9755 10.8199 49.8488 10.2553 49.9502 9.73229C50.286 7.99474 51.349 6.89813 53.0572 6.43174C53.333 6.35607 53.6449 6.33896 53.8749 6.19229C54.0813 6.06082 54.1984 5.78828 54.3546 5.57772C54.1098 5.44041 53.8547 5.16791 53.622 5.18607C51.1087 5.38246 49.0953 7.44372 48.8152 10.0229Z" fill="url(#paint3_linear_56_4773)"/>
<path d="M51.2796 10.8601C51.3063 11.0614 51.3268 11.5227 51.4439 11.9578C51.4898 12.1283 51.7999 12.3826 51.9061 12.3474C52.1 12.2832 52.2692 12.0511 52.3762 11.8506C52.4483 11.7158 52.3953 11.5144 52.3991 11.343C52.4363 9.68319 52.8526 9.12814 54.3742 8.50595C54.6663 8.38661 54.8533 8.00948 55.0886 7.75145C54.7336 7.67082 54.3496 7.46032 54.0285 7.53191C52.5577 7.859 51.4604 9.14364 51.2796 10.8601Z" fill="url(#paint4_linear_56_4773)"/>
<path d="M68.1476 25.2698C68.123 24.0197 67.7127 23.0642 66.9532 22.2618C66.791 22.0909 66.4259 22.1125 66.154 22.0455C66.142 22.3273 66.005 22.7111 66.1382 22.8751C67.2144 24.2014 67.1976 25.4562 66.0764 26.7466C65.9321 26.9127 66.0327 27.2913 66.0199 27.5713C66.2981 27.5226 66.7122 27.5716 66.8303 27.4077C67.3183 26.7302 67.7165 25.9882 68.1476 25.2698Z" fill="url(#paint5_linear_56_4773)"/>
<defs>
<linearGradient id="paint0_linear_56_4773" x1="3.10522" y1="99.9133" x2="60.2347" y2="105.918" gradientUnits="userSpaceOnUse">
<stop offset="1" stop-color="#0080D4"/>
<stop stop-color="#A739BA"/>
</linearGradient>
<linearGradient id="paint1_linear_56_4773" x1="3.4327" y1="100.343" x2="58.3199" y2="106.112" gradientUnits="userSpaceOnUse">
<stop offset="1" stop-color="#097ED3"/>
<stop offset="0.029557" stop-color="#A53CBA"/>
<stop stop-color="#1A1818"/>
</linearGradient>
<linearGradient id="paint2_linear_56_4773" x1="35.8223" y1="132.535" x2="68.7729" y2="135.998" gradientUnits="userSpaceOnUse">
<stop offset="1" stop-color="#097CD2"/>
<stop stop-color="#9B41BC"/>
</linearGradient>
<linearGradient id="paint3_linear_56_4773" x1="0.866779" y1="99.8143" x2="61.8455" y2="106.223" gradientUnits="userSpaceOnUse">
<stop offset="1" stop-color="#097CD2"/>
<stop stop-color="#9B41BC"/>
</linearGradient>
<linearGradient id="paint4_linear_56_4773" x1="18.2526" y1="73.5346" x2="60.1174" y2="77.9347" gradientUnits="userSpaceOnUse">
<stop offset="1" stop-color="#097CD2"/>
<stop stop-color="#9B41BC"/>
</linearGradient>
<linearGradient id="paint5_linear_56_4773" x1="40.5997" y1="95.4961" x2="68.8158" y2="98.4618" gradientUnits="userSpaceOnUse">
<stop offset="1" stop-color="#097CD2"/>
<stop stop-color="#9B41BC"/>
</linearGradient>
</defs>
</svg>
