<svg width="20" height="28" viewBox="0 0 20 28" fill="none" xmlns="http://www.w3.org/2000/svg">
<path d="M17.8673 0.666016H2.99561C1.861 0.666016 0.944336 1.58268 0.944336 2.71729V25.2812C0.944336 26.4159 1.861 27.3325 2.99561 27.3325H17.8673C19.0019 27.3325 19.9186 26.4159 19.9186 25.2812V2.71729C19.9186 1.58268 19.0019 0.666016 17.8673 0.666016ZM17.0981 18.1018V23.23C17.0981 24.0825 16.4122 24.7684 15.5596 24.7684C14.7071 24.7684 14.0212 24.0825 14.0212 23.23V18.1018C14.0212 17.2492 14.7071 16.5634 15.5596 16.5634C16.4122 16.5634 17.0981 17.2492 17.0981 18.1018ZM17.0981 12.9736C17.0981 13.8262 16.4122 14.5121 15.5596 14.5121C14.7071 14.5121 14.0212 13.8262 14.0212 12.9736C14.0212 12.1211 14.7071 11.4352 15.5596 11.4352C16.4122 11.4352 17.0981 12.1211 17.0981 12.9736ZM11.9699 23.23C11.9699 24.0825 11.284 24.7684 10.4315 24.7684C9.5789 24.7684 8.89301 24.0825 8.89301 23.23C8.89301 22.3774 9.5789 21.6915 10.4315 21.6915C11.284 21.6915 11.9699 22.3774 11.9699 23.23ZM11.9699 18.1018C11.9699 18.9544 11.284 19.6403 10.4315 19.6403C9.5789 19.6403 8.89301 18.9544 8.89301 18.1018C8.89301 17.2492 9.5789 16.5634 10.4315 16.5634C11.284 16.5634 11.9699 17.2492 11.9699 18.1018ZM11.9699 12.9736C11.9699 13.8262 11.284 14.5121 10.4315 14.5121C9.5789 14.5121 8.89301 13.8262 8.89301 12.9736C8.89301 12.1211 9.5789 11.4352 10.4315 11.4352C11.284 11.4352 11.9699 12.1211 11.9699 12.9736ZM6.84174 23.23C6.84174 24.0825 6.15584 24.7684 5.30328 24.7684C4.45072 24.7684 3.76483 24.0825 3.76483 23.23C3.76483 22.3774 4.45072 21.6915 5.30328 21.6915C6.15584 21.6915 6.84174 22.3774 6.84174 23.23ZM6.84174 18.1018C6.84174 18.9544 6.15584 19.6403 5.30328 19.6403C4.45072 19.6403 3.76483 18.9544 3.76483 18.1018C3.76483 17.2492 4.45072 16.5634 5.30328 16.5634C6.15584 16.5634 6.84174 17.2492 6.84174 18.1018ZM6.84174 12.9736C6.84174 13.8262 6.15584 14.5121 5.30328 14.5121C4.45072 14.5121 3.76483 13.8262 3.76483 12.9736C3.76483 12.1211 4.45072 11.4352 5.30328 11.4352C6.15584 11.4352 6.84174 12.1211 6.84174 12.9736ZM3.76483 7.84546V4.76855C3.76483 4.20446 4.22637 3.74292 4.79047 3.74292H16.0724C16.6365 3.74292 17.0981 4.20446 17.0981 4.76855V7.84546C17.0981 8.40956 16.6365 8.87109 16.0724 8.87109H4.79047C4.22637 8.87109 3.76483 8.40956 3.76483 7.84546Z" fill="white"/>
</svg>
