<svg width="28" height="28" viewBox="0 0 28 28" fill="none" xmlns="http://www.w3.org/2000/svg">
<path d="M18.5723 10.6211H21.2468C21.7748 12.8089 22.3019 14.9931 22.829 17.1774C22.8437 17.1765 22.8584 17.1755 22.8731 17.1745C23.396 14.9902 23.919 12.8059 24.442 10.6213H27.0893V19.0961H25.3996V12.2517C25.381 12.2493 25.3624 12.2469 25.3438 12.2446C25.1903 12.8937 25.0363 13.5427 24.8835 14.192C24.5134 15.7641 24.1419 17.336 23.7772 18.9093C23.7452 19.0472 23.7048 19.1168 23.5471 19.1136C23.0753 19.1042 22.6029 19.1018 22.1312 19.1146C21.9513 19.1196 21.9034 19.0488 21.8659 18.8861C21.3977 16.8537 20.9206 14.8233 20.4456 12.7925C20.404 12.6145 20.3612 12.4368 20.2784 12.2612V19.0952H18.5723V10.6211Z" fill="white"/>
<path d="M1.57422 8.66845C3.44468 4.25259 8.2095 0.412146 14.3939 0.680238C20.0761 0.926568 24.3434 4.70606 25.9642 8.66789C25.3464 8.66789 24.7393 8.67518 24.1329 8.65859C24.0577 8.65653 23.9628 8.54066 23.916 8.45601C22.8354 6.5049 21.3267 4.97883 19.3788 3.89383C13.8069 0.790324 6.71437 2.83516 3.6628 8.42685C3.55844 8.61802 3.44552 8.67963 3.23481 8.67362C2.69028 8.65815 2.14496 8.66845 1.57422 8.66845Z" fill="white"/>
<path d="M2.5332 21.1133C3.22249 21.1133 3.87917 21.1046 4.53512 21.1223C4.63742 21.1251 4.75936 21.2292 4.8336 21.3186C6.49541 23.3194 8.57397 24.6888 11.1156 25.2362C15.6563 26.214 19.493 24.9203 22.5856 21.4567C22.8115 21.2037 23.0161 21.0873 23.3532 21.1053C23.8963 21.1344 24.442 21.1131 25.0636 21.1131C22.6399 24.7117 19.3596 26.8277 15.0897 27.2629C9.1657 27.8665 4.58755 24.5326 2.5332 21.1133Z" fill="white"/>
<path d="M11.5471 15.8192V19.0952H9.75098V10.6331C9.81755 10.6256 9.87871 10.6127 9.93987 10.6128C11.365 10.6134 12.7903 10.608 14.2153 10.623C14.5263 10.6262 14.845 10.6712 15.1455 10.7515C16.6921 11.1651 17.3539 13.2261 16.3289 14.4586C16.1244 14.7043 15.8255 14.8716 15.5653 15.079C15.5552 15.0674 15.5684 15.0956 15.5898 15.1052C16.3011 15.4217 16.5399 16.0141 16.5556 16.7422C16.5665 17.2505 16.5672 17.7604 16.6131 18.2659C16.63 18.4523 16.7621 18.6288 16.8442 18.8086C16.8842 18.8963 16.93 18.9814 16.9899 19.1011H14.8784C14.8269 18.7667 14.756 18.4347 14.7286 18.0991C14.6917 17.6476 14.6987 17.1927 14.6681 16.7406C14.6282 16.152 14.4064 15.8686 13.8271 15.831C13.0837 15.7827 12.3347 15.8192 11.5471 15.8192ZM11.5684 12.1162V14.32C12.4294 14.32 13.28 14.3683 14.122 14.3038C14.7354 14.2569 14.9753 13.8397 14.9467 13.1414C14.9225 12.5515 14.6017 12.1534 14.022 12.1259C13.2121 12.0875 12.399 12.1162 11.5684 12.1162Z" fill="white"/>
<path d="M8.22862 13.4444C7.63283 13.4444 7.06086 13.4495 6.48928 13.4366C6.43145 13.4354 6.3508 13.3358 6.32331 13.2653C5.89972 12.1786 4.96198 11.7144 3.85021 12.0615C3.18519 12.2691 2.78803 12.7631 2.57955 13.3951C2.25251 14.3866 2.22886 15.3979 2.55723 16.3945C2.92466 17.5098 4.00655 18.0556 5.12928 17.7171C5.74305 17.5321 6.09824 17.0858 6.27116 16.4962C6.34051 16.2598 6.45438 16.2068 6.67811 16.2136C7.17673 16.2287 7.67607 16.2183 8.20802 16.2183C8.02252 17.3004 7.52496 18.1638 6.62641 18.7599C4.30403 20.3006 1.08754 18.9535 0.566382 16.2246C0.35133 15.0986 0.374204 13.9777 0.777594 12.8898C1.33292 11.3922 2.65412 10.4743 4.24687 10.4484C4.94779 10.4371 5.63502 10.5044 6.28124 10.7891C7.29695 11.2363 7.9273 12.0135 8.18548 13.0915C8.21058 13.1963 8.21248 13.3067 8.22862 13.4444Z" fill="white"/>
</svg>
