<svg width="27" height="28" viewBox="0 0 27 28" fill="none" xmlns="http://www.w3.org/2000/svg">
<path d="M25.6516 25.1124H23.4316V23.999H22.3183V25.1124H20.1017V23.999H18.9884V25.1124H16.7684V23.999H15.6551V25.1124H13.4351V23.999H12.3218V25.1124H10.1018V23.999H8.98851V25.1124H4.09855L9.95402 21.5935L12.8518 13.1248L17.1562 20.6902L25.4972 6.7926L23.5927 5.64816L17.2073 16.288L12.3451 7.74259L8.113 20.1069L2.3186 23.589V0.666016H0.0986328V27.3323H26.7649V23.999H25.6516L25.6516 25.1124ZM25.6516 0.666016H26.7649V1.77933H25.6516V0.666016ZM22.3183 0.666016H23.4316V1.77933H22.3183V0.666016ZM18.9883 0.666016H20.1017V1.77933H18.9884L18.9883 0.666016ZM15.6551 0.666016H16.7684V1.77933H15.6551L15.6551 0.666016ZM12.3218 0.666016H13.4351V1.77933H12.3218L12.3218 0.666016ZM8.98848 0.666016H10.1018V1.77933H8.98851L8.98848 0.666016ZM5.6552 0.666016H6.76851V1.77933H5.65522L5.6552 0.666016ZM2.32191 0.666016H3.43523V1.77933H2.32194L2.32191 0.666016ZM25.6516 3.9993H26.7649V5.11262H25.6516V3.9993ZM22.3183 3.9993H23.4316V5.11262H22.3183V3.9993ZM18.9883 3.9993H20.1017V5.11262H18.9884L18.9883 3.9993ZM15.6551 3.9993H16.7684V5.11262H15.6551L15.6551 3.9993ZM12.3218 3.9993H13.4351V5.11262H12.3218L12.3218 3.9993ZM8.98848 3.9993H10.1018V5.11262H8.98851L8.98848 3.9993ZM5.6552 3.9993H6.76851V5.11262H5.65522L5.6552 3.9993ZM2.32191 3.9993H3.43523V5.11262H2.32194L2.32191 3.9993ZM25.6516 7.32926H26.7649V8.44258H25.6516V7.32926ZM18.9883 7.32926H20.1017V8.44258H18.9884L18.9883 7.32926ZM15.6551 7.32926H16.7684V8.44258H15.6551L15.6551 7.32926ZM8.98849 7.32926H10.1018V8.44258H8.98851L8.98849 7.32926ZM5.6552 7.32926H6.76852V8.44258H5.65522L5.6552 7.32926ZM2.32191 7.32926H3.43523V8.44258H2.32194L2.32191 7.32926ZM25.6516 10.6625H26.7649V11.7759H25.6516V10.6625ZM15.6551 10.6625H16.7684V11.7759H15.6551L15.6551 10.6625ZM8.98849 10.6625H10.1018V11.7759H8.98851L8.98849 10.6625ZM5.6552 10.6625H6.76852V11.7759H5.65522L5.6552 10.6625ZM2.32191 10.6625H3.43523V11.7759H2.32194L2.32191 10.6625ZM25.6516 13.998H26.7649V15.1114H25.6516V13.998ZM22.3183 13.998H23.4316V15.1114H22.3183V13.998ZM5.6552 13.998H6.76852V15.1114H5.65522L5.6552 13.998ZM2.32191 13.998H3.43523V15.1114H2.32194L2.32191 13.998ZM25.6516 17.3313H26.7649V18.4447H25.6516V17.3313ZM22.3183 17.3313H23.4316V18.4447H22.3183V17.3313ZM12.3218 17.3313H13.4351V18.4447H12.3218L12.3218 17.3313ZM5.6552 17.3313H6.76852V18.4447H5.65522L5.6552 17.3313ZM2.32191 17.3313H3.43523V18.4447H2.32194L2.32191 17.3313ZM25.6516 20.6613H26.7649V21.7746H25.6516V20.6613ZM22.3183 20.6613H23.4316V21.7746H22.3183V20.6613ZM18.9883 20.6613H20.1017V21.7746H18.9884L18.9883 20.6613ZM12.3218 20.6613H13.4351V21.7746H12.3218L12.3218 20.6613ZM2.32191 20.6613H3.43523V21.7746H2.32194L2.32191 20.6613Z" fill="white"/>
</svg>
