<svg width="21" height="28" viewBox="0 0 21 28" fill="none" xmlns="http://www.w3.org/2000/svg">
<path d="M17.9315 3.99933H13.7649C13.7649 2.1608 12.2701 0.666016 10.4316 0.666016C8.59305 0.666016 7.09827 2.1608 7.09827 3.99933H2.93163C1.55143 3.99933 0.431641 5.11911 0.431641 6.49931V24.8325C0.431641 26.2127 1.55143 27.3325 2.93163 27.3325H17.9315C19.3117 27.3325 20.4315 26.2127 20.4315 24.8325V6.49931C20.4315 5.11911 19.3117 3.99933 17.9315 3.99933ZM5.43161 22.7492C4.73891 22.7492 4.18162 22.1919 4.18162 21.4992C4.18162 20.8065 4.73891 20.2492 5.43161 20.2492C6.12431 20.2492 6.6816 20.8065 6.6816 21.4992C6.6816 22.1919 6.12431 22.7492 5.43161 22.7492ZM5.43161 17.7492C4.73891 17.7492 4.18162 17.192 4.18162 16.4993C4.18162 15.8065 4.73891 15.2493 5.43161 15.2493C6.12431 15.2493 6.6816 15.8065 6.6816 16.4993C6.6816 17.192 6.12431 17.7492 5.43161 17.7492ZM5.43161 12.7493C4.73891 12.7493 4.18162 12.192 4.18162 11.4993C4.18162 10.8066 4.73891 10.2493 5.43161 10.2493C6.12431 10.2493 6.6816 10.8066 6.6816 11.4993C6.6816 12.192 6.12431 12.7493 5.43161 12.7493ZM10.4316 2.74934C11.1243 2.74934 11.6816 3.30662 11.6816 3.99933C11.6816 4.69203 11.1243 5.24932 10.4316 5.24932C9.73888 5.24932 9.18159 4.69203 9.18159 3.99933C9.18159 3.30662 9.73888 2.74934 10.4316 2.74934ZM17.0982 21.9159C17.0982 22.1451 16.9107 22.3326 16.6815 22.3326H9.18159C8.95242 22.3326 8.76492 22.1451 8.76492 21.9159V21.0826C8.76492 20.8534 8.95242 20.6659 9.18159 20.6659H16.6815C16.9107 20.6659 17.0982 20.8534 17.0982 21.0826V21.9159ZM17.0982 16.9159C17.0982 17.1451 16.9107 17.3326 16.6815 17.3326H9.18159C8.95242 17.3326 8.76492 17.1451 8.76492 16.9159V16.0826C8.76492 15.8534 8.95242 15.6659 9.18159 15.6659H16.6815C16.9107 15.6659 17.0982 15.8534 17.0982 16.0826V16.9159ZM17.0982 11.9159C17.0982 12.1451 16.9107 12.3326 16.6815 12.3326H9.18159C8.95242 12.3326 8.76492 12.1451 8.76492 11.9159V11.0826C8.76492 10.8535 8.95242 10.666 9.18159 10.666H16.6815C16.9107 10.666 17.0982 10.8535 17.0982 11.0826V11.9159Z" fill="white"/>
</svg>
