<svg width="59" height="59" viewBox="0 0 59 59" fill="none" xmlns="http://www.w3.org/2000/svg">
<path d="M56.108 53.9638H51.2335V51.5192H48.7889V53.9638H43.9217V51.5192H41.4772V53.9638H36.6027V51.5192H34.1581V53.9638H29.2836V51.5192H26.8391V53.9638H21.9646V51.5192H19.52V53.9638H8.78283L21.64 46.2373L28.0027 27.642L37.4541 44.2538L55.769 13.7381L51.5873 11.2252L37.5664 34.5877L26.8903 15.824L17.5976 42.973L4.87451 50.6189V0.285645H0V58.8383H58.5526V51.5192H56.108L56.108 53.9638ZM56.108 0.285645H58.5526V2.73022H56.108V0.285645ZM48.7889 0.285645H51.2335V2.73022H48.7889V0.285645ZM41.4772 0.285645H43.9217V2.73022H41.4772L41.4772 0.285645ZM34.1581 0.285645H36.6026V2.73022H34.1581L34.1581 0.285645ZM26.839 0.285645H29.2836V2.73022H26.8391L26.839 0.285645ZM19.5199 0.285645H21.9645V2.73022H19.52L19.5199 0.285645ZM12.2008 0.285645H14.6454V2.73022H12.2009L12.2008 0.285645ZM4.88176 0.285645H7.32633V2.73022H4.88182L4.88176 0.285645ZM56.108 7.60472H58.5526V10.0493H56.108V7.60472ZM48.7889 7.60472H51.2335V10.0493H48.7889V7.60472ZM41.4772 7.60472H43.9217V10.0493H41.4772L41.4772 7.60472ZM34.1581 7.60472H36.6026V10.0493H34.1581L34.1581 7.60472ZM26.839 7.60472H29.2836V10.0493H26.8391L26.839 7.60472ZM19.5199 7.60472H21.9645V10.0493H19.52L19.5199 7.60472ZM12.2008 7.60472H14.6454V10.0493H12.2009L12.2008 7.60472ZM4.88176 7.60472H7.32633V10.0493H4.88182L4.88176 7.60472ZM56.108 14.9165H58.5526V17.3611H56.108V14.9165ZM41.4772 14.9165H43.9217V17.3611H41.4772L41.4772 14.9165ZM34.1581 14.9165H36.6026V17.3611H34.1581L34.1581 14.9165ZM19.5199 14.9165H21.9645V17.3611H19.52L19.5199 14.9165ZM12.2008 14.9165H14.6454V17.3611H12.2009L12.2008 14.9165ZM4.88176 14.9165H7.32633V17.3611H4.88182L4.88176 14.9165ZM56.108 22.2356H58.5526V24.6801H56.108V22.2356ZM34.1581 22.2356H36.6026V24.6801H34.1581L34.1581 22.2356ZM19.5199 22.2356H21.9645V24.6801H19.52L19.5199 22.2356ZM12.2008 22.2356H14.6454V24.6801H12.2009L12.2008 22.2356ZM4.88177 22.2356H7.32634V24.6801H4.88182L4.88177 22.2356ZM56.108 29.5595H58.5526V32.0041H56.108V29.5595ZM48.7889 29.5595H51.2335V32.0041H48.7889V29.5595ZM12.2008 29.5595H14.6454V32.0041H12.2009L12.2008 29.5595ZM4.88177 29.5595H7.32634V32.0041H4.88182L4.88177 29.5595ZM56.108 36.8786H58.5526V39.3231H56.108V36.8786ZM48.7889 36.8786H51.2335V39.3231H48.7889V36.8786ZM26.839 36.8786H29.2836V39.3231H26.8391L26.839 36.8786ZM12.2008 36.8786H14.6454V39.3231H12.2009L12.2008 36.8786ZM4.88177 36.8786H7.32634V39.3231H4.88182L4.88177 36.8786ZM56.108 44.1903H58.5526V46.6349H56.108V44.1903ZM48.7889 44.1903H51.2335V46.6349H48.7889V44.1903ZM41.4772 44.1903H43.9217V46.6349H41.4772L41.4772 44.1903ZM26.839 44.1903H29.2836V46.6349H26.8391L26.839 44.1903ZM4.88176 44.1903H7.32633V46.6349H4.88182L4.88176 44.1903Z" fill="#019BFE"/>
</svg>
